<svg width="1024" height="1024" viewBox="0 0 1024 1024" fill="none" xmlns="http://www.w3.org/2000/svg">
<rect width="1024" height="1024" fill="#4700DD"/>
<path d="M773.172 348.706C780.534 348.432 786.499 354.432 786.5 361.808V507.781C786.497 515.156 780.52 521.084 773.172 521.609C753 523.053 733.161 527.768 714.424 535.593C691.571 545.138 670.802 559.13 653.311 576.766C635.819 594.404 621.932 615.344 612.465 638.388C602.998 661.434 598.136 686.144 598.136 711.089V853.139C598.136 860.515 592.158 866.497 584.792 866.5H440.208C432.844 866.496 426.881 860.514 426.881 853.139V711.089C426.881 663.467 436.171 616.303 454.244 572.307C472.317 528.311 498.812 488.337 532.206 454.664C565.6 420.992 605.243 394.275 648.874 376.051C688.395 359.545 730.496 350.303 773.172 348.706ZM584.774 158.5C592.143 158.5 598.147 164.489 597.877 171.861C596.303 214.924 587.137 257.405 570.756 297.283C552.683 341.277 526.187 381.253 492.794 414.925C459.399 448.599 419.741 475.314 376.109 493.538C336.591 510.042 294.5 519.286 251.828 520.883C244.467 521.157 238.503 515.155 238.5 507.781V361.808C238.501 354.431 244.478 348.506 251.828 347.98C271.999 346.536 291.839 341.821 310.576 333.996C333.428 324.452 354.198 310.458 371.689 292.823C389.182 275.184 403.068 254.23 412.535 231.184C420.307 212.261 424.974 192.218 426.398 171.844C426.913 164.487 432.843 158.502 440.208 158.5H584.774Z" fill="white"/>
</svg>
