<svg width="1024" height="1024" viewBox="0 0 1024 1024" fill="none" xmlns="http://www.w3.org/2000/svg">
<rect width="1024" height="1024" fill="#FF6A46"/>
<path d="M728.587 288C805.583 288 868 388.288 868 512C868 635.712 805.583 736 728.587 736C704.174 736 681.228 725.916 661.272 708.2C650.092 698.276 636.278 691.2 621.327 691.2C606.376 691.2 592.562 698.275 581.382 708.2C561.427 725.915 538.483 735.999 514.071 736C490.291 736 467.903 726.432 448.314 709.562C435.993 698.952 421.003 691.2 404.742 691.2C388.481 691.2 373.491 698.952 361.17 709.563C341.581 726.432 319.193 736 295.413 736C218.418 735.999 156 635.711 156 512C156 388.289 218.418 288.001 295.413 288C319.193 288 341.581 297.568 361.17 314.437C373.491 325.048 388.481 332.8 404.742 332.8C421.003 332.8 435.993 325.048 448.314 314.438C467.903 297.568 490.291 288 514.071 288C538.483 288.001 561.427 298.085 581.382 315.8C592.562 325.725 606.376 332.8 621.327 332.8C636.278 332.8 650.092 325.724 661.272 315.8C681.228 298.084 704.174 288 728.587 288Z" fill="white"/>
</svg>
