<svg width="1024" height="1024" viewBox="0 0 1024 1024" fill="none" xmlns="http://www.w3.org/2000/svg">
<rect width="1024" height="1024" fill="white"/>
<path d="M801.401 554.767C838.734 554.767 869 585.04 869 622.383C869 659.727 838.735 690 801.401 690C764.066 690 733.801 659.727 733.801 622.383C733.801 585.04 764.067 554.767 801.401 554.767Z" fill="black"/>
<path d="M99.3018 675.772C138.048 543.688 269.837 305.906 559.012 335.529C562.776 335.914 565.716 339.132 565.716 342.938V403.479C565.716 410.321 574.324 413.856 579.421 409.325C620.297 372.985 709.263 322.738 858.846 335.635C862.665 335.964 865.637 339.203 865.637 343.059V523.05C865.637 527.188 862.303 530.542 858.189 530.542H744.834C740.72 530.542 737.386 527.188 737.386 523.05V474.876C737.386 470.177 733.135 466.649 728.64 467.927C681.77 481.262 588.759 538.054 528.052 680.493C526.869 683.27 524.145 685.13 521.143 685.13H407.089C402.478 685.13 398.975 680.958 399.746 676.385L433.456 476.447C434.323 471.3 429.86 466.902 424.875 468.355C375.855 482.647 282.326 539.993 227.418 680.278C226.287 683.167 223.507 685.13 220.42 685.13H106.408C101.498 685.13 97.9123 680.509 99.3018 675.772Z" fill="black"/>
</svg>
